PathFileType	4	(X/Y/Z)	Kaydara																																																																																																																									
DataRate	CameraRate	NumFrames	NumMarkers	Units	OrigDataRate	OrigDataStartFrame	OrigNumFrames																																																																																																																					
30	30	4	41	mm	30	52	144																																																																																																																					
Frame#	Time	EMLA_LFHD			EMLA_RFHD			EMLA_LBHD			EMLA_RBHD			EMLA_LFTShould			EMLA_RFTShould			EMLA_LRRShould			EMLA_RRRShould			EMLA_T10			EMLA_STRN			EMLA_TRUN			EMLA_LSHO			EMLA_LUPA			EMLA_LELB			EMLA_LFRM			EMLA_LWRA			EMLA_LWRB			EMLA_LFIN			EMLA_RSHO			EMLA_RUPA			EMLA_RELB			EMLA_RFRM			EMLA_RWRA			EMLA_RWRB			EMLA_RFIN			EMLA_LFWT			EMLA_RFWT			EMLA_LBWT			EMLA_RBWT			EMLA_LTHI			EMLA_LKNE			EMLA_LSHN			EMLA_LANK			EMLA_LHEE			EMLA_LTOE			EMLA_RTHI			EMLA_RKNE			EMLA_RSHN			EMLA_RANK			EMLA_RHEE			EMLA_RTOE		
		X1	Y1	Z1	X2	Y2	Z2	X3	Y3	Z3	X4	Y4	Z4	X5	Y5	Z5	X6	Y6	Z6	X7	Y7	Z7	X8	Y8	Z8	X9	Y9	Z9	X10	Y10	Z10	X11	Y11	Z11	X12	Y12	Z12	X13	Y13	Z13	X14	Y14	Z14	X15	Y15	Z15	X16	Y16	Z16	X17	Y17	Z17	X18	Y18	Z18	X19	Y19	Z19	X20	Y20	Z20	X21	Y21	Z21	X22	Y22	Z22	X23	Y23	Z23	X24	Y24	Z24	X25	Y25	Z25	X26	Y26	Z26	X27	Y27	Z27	X28	Y28	Z28	X29	Y29	Z29	X30	Y30	Z30	X31	Y31	Z31	X32	Y32	Z32	X33	Y33	Z33	X34	Y34	Z34	X35	Y35	Z35	X36	Y36	Z36	X37	Y37	Z37	X38	Y38	Z38	X39	Y39	Z39	X40	Y40	Z40	X41	Y41	Z41
																																																																																																																												
37	1.7	273.90762	1632.01935	-1872.74567	104.50346	1630.55191	-1877.55295	291.93024	1628.82523	-2023.68729	97.26824	1630.1944	-2030.54535	275.4537	1404.70718	-1935.45868	126.4572	1395.37262	-1933.54691	267.91111	1448.10074	-2084.64203	109.79789	1439.92584	-2081.10641	200.38431	1272.57996	-2125.26886	199.9799	1335.44159	-1895.7016	195.17736	1232.60963	-1873.87466	399.35616	1424.18686	-1989.26361	454.57752	1241.5361	-2003.49884	472.36717	1098.13309	-2006.7569	469.59286	960.56381	-1996.72028	388.17108	823.67104	-1905.84045	440.39528	798.98758	-1967.21893	437.29721	769.63089	-1904.27322	2.86558	1422.52869	-1994.47052	-52.22894	1230.16769	-1982.47208	-65.7829	1082.47375	-1991.65421	-67.93255	982.32849	-1996.819	-6.07107	822.76436	-1889.50989	-51.79029	800.98648	-1957.72202	-64.4689	774.03313	-1900.95123	293.19483	987.47803	-1896.87424	59.64041	979.49936	-1922.47223	280.74184	1015.19791	-2098.16925	104.54696	1017.14066	-2099.9324	320.95528	726.9545	-2087.49924	317.25199	522.61494	-2048.12943	284.61752	339.59438	-2042.06497	283.61237	163.92223	-2118.98102	216.33154	84.63461	-2181.18484	246.28405	74.48556	-1982.72781	67.98788	717.52296	-2117.25143	32.86071	515.14233	-2056.48026	77.13331	292.20287	-2052.63596	39.32267	130.98717	-2133.68607	94.89238	76.77154	-2186.93726	67.43662	71.34846	-1985.45425
38	1.733	275.20947	1631.64215	-1869.08234	105.58032	1630.1358	-1873.9592	293.11161	1628.4465	-2019.88831	98.48047	1629.85474	-2026.91971	276.95509	1404.27948	-1931.7041	127.42987	1394.77234	-1930.49042	269.68372	1448.26111	-2080.91019	111.50582	1440.15671	-2078.16208	202.40868	1272.87743	-2122.49985	201.14065	1334.39117	-1892.61459	196.27298	1231.83136	-1871.38031	400.85995	1423.8179	-1985.25101	456.00826	1241.22093	-2001.14151	473.69022	1097.78961	-2005.19623	470.76092	960.12955	-1996.3327	388.52089	822.4437	-1907.20337	441.31184	798.25684	-1968.42133	438.00621	768.34778	-1905.80063	4.35504	1422.40005	-1991.88889	-50.84623	1230.39665	-1980.73105	-64.69846	1082.61337	-1990.18509	-66.98907	982.42882	-1995.68008	-6.11807	822.39899	-1888.43063	-51.54427	801.12854	-1956.88904	-64.5747	773.85254	-1900.2951	294.02679	987.03514	-1894.78867	60.6032	979.30695	-1921.6423	282.56371	1014.88884	-2095.98785	106.42654	1016.76079	-2098.6792	322.2369	726.32301	-2084.97437	317.99868	522.19265	-2045.58197	284.78418	338.85468	-2040.20294	283.60207	163.63461	-2118.60306	216.33825	84.73548	-2181.18027	246.12057	74.55125	-1982.78381	69.13919	717.26921	-2115.95093	33.30777	514.90551	-2054.65485	77.2992	291.81643	-2051.67618	39.27592	131.03273	-2133.61191	94.84605	76.41152	-2187.16537	67.38233	71.35313	-1985.58807
39	1.767	276.49414	1631.23077	-1864.21631	106.7108	1629.64905	-1869.71298	294.80869	1628.05023	-2014.99863	100.20967	1629.32922	-2022.49741	278.79837	1403.82095	-1926.8161	128.9407	1394.22272	-1926.52496	272.14083	1448.44635	-2076.02371	113.85411	1440.5304	-2074.56711	205.13508	1273.25539	-2119.01917	202.74984	1333.86765	-1888.91953	197.5078	1230.79941	-1868.12637	402.82394	1423.37967	-1979.57413	457.81757	1240.79781	-1996.8161	475.26844	1097.35619	-2002.03827	472.2924	959.62799	-1994.83109	389.62837	820.74875	-1908.20007	442.65652	797.29713	-1969.35928	438.85067	766.64726	-1907.2934	6.25813	1422.31354	-1988.87283	-48.89392	1230.2446	-1978.75381	-63.38318	1082.78107	-1989.33182	-65.84431	982.6931	-1995.26031	-6.48131	822.0771	-1887.93839	-51.27517	801.23413	-1956.92123	-64.93483	773.75824	-1900.63858	295.48147	986.55762	-1892.12051	62.16105	979.32274	-1920.12054	284.81003	1014.48654	-2093.47229	108.69934	1016.42555	-2097.043	323.57201	725.90652	-2082.65091	318.89648	521.64707	-2043.44849	285.30956	338.38501	-2039.0094	283.9319	163.49367	-2117.83752	216.51205	84.80932	-2181.24664	246.07151	74.58817	-1982.85049	70.34395	716.55281	-2113.41339	33.99651	514.68723	-2051.19202	77.71005	291.07098	-2049.75998	39.43454	131.10034	-2133.18893	94.80369	76.79084	-2186.98914	67.39121	71.37498	-1985.66788
40	1.8	278.13778	1630.69199	-1858.26462	108.51899	1629.00909	-1864.29443	296.99331	1627.63916	-2008.98972	102.43711	1628.7738	-2017.2934	280.97843	1403.31009	-1920.78522	131.22647	1393.54065	-1922.28287	275.44079	1448.6792	-2069.87183	117.1076	1440.83603	-2070.07736	208.79185	1273.72559	-2114.56299	204.57041	1332.90771	-1884.25491	199.06107	1229.67758	-1864.04922	405.28473	1422.72247	-1972.31705	460.00751	1240.10254	-1990.50293	476.99772	1096.57509	-1996.84525	474.10591	958.95576	-1991.84906	390.94658	818.27065	-1908.26981	444.53644	796.16501	-1969.42673	439.97265	764.29825	-1907.92984	8.77796	1422.27524	-1985.50201	-46.82595	1230.60219	-1977.09625	-61.84299	1083.23349	-1988.84384	-64.58976	983.18497	-1995.6163	-7.21982	821.62605	-1888.65204	-51.19061	801.55991	-1958.311	-65.69553	773.52646	-1902.39471	297.2521	986.10275	-1889.08005	64.24226	979.34662	-1918.20755	287.29559	1014.09805	-2090.74631	111.19215	1016.15067	-2094.94537	325.34081	725.76538	-2080.57419	320.08812	521.25477	-2042.0607	286.01135	337.99339	-2038.14377	284.31753	163.38009	-2117.49802	216.7104	84.84102	-2181.34888	246.02367	74.67699	-1982.93732	71.47752	715.30518	-2109.37622	34.69846	514.08447	-2045.06195	78.36509	289.90871	-2046.54205	39.5713	131.06687	-2132.19193	94.72773	77.16738	-2186.93939	67.39788	71.33763	-1985.68024
